<svg xmlns="http://www.w3.org/2000/svg" viewBox="0 0 60 60" x="0px" y="0px">
    <!-- Command prompt lines -->
    <path d="M 49.3 49.49 H 9.5 a 2.5 2.5 0 0 0 0 5 H 49.3 a 2.5 2.5 0 0 0 0 -5 Z"/>
    <path d="M 7.73 42.38 a 2.5 2.5 0 0 0 3.54 0 L 28.33 25.33 a 2.5 2.5 0 0 0 0 -3.54 L 11.27 4.73 A 2.5 2.5 0 1 0 7.73 8.27 L 23 23.56 L 7.73 38.85 A 2.5 2.5 0 0 0 7.73 42.38 Z"/>
    <!-- Editor/config shapes -->
    <!-- Top -->
    <path d="M 27 9.5 H 21 a 1 1 90 0 1 0 -2 h 6 a 1 1 90 0 1 0 2 Z"/>
    <path d="M 30 12.5 a 4 4 90 1 1 4 -4 A 4 4 90 0 1 30 12.5 Z m 0 -6 a 2 2 90 1 0 2 2 A 2 2 90 0 0 30 6.5 Z"/>
    <path d="M 51 9.5 H 33 a 1 1 90 0 1 0 -2 H 51 a 1 1 90 0 1 0 2 Z"/>
    <!-- Middle -->
    <path d="M 38.5 24.5 H 32.5 a 1 1 90 0 1 0 -2 h 6 a 1 1 90 0 1 0 2 Z"/>
    <path d="M 42 27.5 a 4 4 0 1 1 4 -4 A 4 4 0 0 1 42 27.5 Z m 0 -6 a 2 2 0 1 0 2 2 A 2 2 0 0 0 42 21.5 Z"/>
    <path d="M 51 24.5 H 45 a 1 1 90 0 1 0 -2 h 6 a 1 1 90 0 1 0 2 Z"/>
    <!-- Bottom -->
    <path d="M 27 39.5 H 21 a 1 1 90 0 1 0 -2 h 6 a 1 1 90 0 1 0 2 Z"/>
    <path d="M 30 42.5 a 4 4 90 1 1 4 -4 A 4 4 90 0 1 30 42.5 Z m 0 -6 a 2 2 90 1 0 2 2 A 2 2 90 0 0 30 36.5 Z"/>
    <path d="M 51 39.5 H 33 a 1 1 90 0 1 0 -2 H 51 a 1 1 90 0 1 0 2 Z"/>
</svg>
