<svg xmlns="http://www.w3.org/2000/svg" viewBox="0 0 48 60" x="0px" y="0px"><title>Setting</title><g><path d="M44,39H16a1,1,0,0,1,0-2H44a1,1,0,0,1,0,2Z"/><path d="M10,39H4a1,1,0,0,1,0-2h6a1,1,0,0,1,0,2Z"/><path d="M13,42a4,4,0,1,1,4-4A4,4,0,0,1,13,42Zm0-6a2,2,0,1,0,2,2A2,2,0,0,0,13,36Z"/><path d="M44,25H38a1,1,0,0,1,0-2h6a1,1,0,0,1,0,2Z"/><path d="M32,25H4a1,1,0,0,1,0-2H32a1,1,0,0,1,0,2Z"/><path d="M35,28a4,4,0,1,1,4-4A4,4,0,0,1,35,28Zm0-6a2,2,0,1,0,2,2A2,2,0,0,0,35,22Z"/><path d="M44,11H16a1,1,0,0,1,0-2H44a1,1,0,0,1,0,2Z"/><path d="M10,11H4A1,1,0,0,1,4,9h6a1,1,0,0,1,0,2Z"/><path d="M13,14a4,4,0,1,1,4-4A4,4,0,0,1,13,14Zm0-6a2,2,0,1,0,2,2A2,2,0,0,0,13,8Z"/></g><text x="0" y="63" fill="#000000" font-size="5px" font-weight="bold" font-family="'Helvetica Neue', Helvetica, Arial-Unicode, Arial, Sans-serif">Created by Rois Faozi</text><text x="0" y="68" fill="#000000" font-size="5px" font-weight="bold" font-family="'Helvetica Neue', Helvetica, Arial-Unicode, Arial, Sans-serif">from the Noun Project</text></svg>