<svg xmlns="http://www.w3.org/2000/svg" viewBox="0 0 44.8 63.112500000000004" x="0px" y="0px">
    <title>inspect-icons-liny-export</title>
    <path d="M42.3,45.49H2.5a2.5,2.5,0,0,0,0,5H42.3a2.5,2.5,0,0,0,0-5Z"/>
    <path d="M.73,38.38a2.5,2.5,0,0,0,3.54,0L21.33,21.33a2.5,2.5,0,0,0,0-3.54L4.27.73A2.5,2.5,0,1,0,.73,4.27L16,19.56.73,34.85A2.5,2.5,0,0,0,.73,38.38Z"/>
    <text x="0" y="65.49000000000001" fill="#000000" font-size="5px" font-weight="bold" font-family="'Helvetica Neue', Helvetica, Arial-Unicode, Arial, Sans-serif">Created by Vicons Design</text>
    <text x="0" y="70.49000000000001" fill="#000000" font-size="5px" font-weight="bold" font-family="'Helvetica Neue', Helvetica, Arial-Unicode, Arial, Sans-serif">from the Noun Project</text>
</svg>
